{
    "asset" : {
        "generator" : "Khronos glTF Blender I/O v1.6.16",
        "version" : "2.0"
    },
    "scene" : 0,
    "scenes" : [
        {
            "name" : "Scene",
            "nodes" : [
                0,
                1,
                2
            ]
        }
    ],
    "nodes" : [
        {
            "mesh" : 0,
            "name" : "SM_Env_TreePine_1083",
            "rotation" : [
                0,
                0.7071068286895752,
                0,
                0.7071068286895752
            ],
            "scale" : [
                0.009999999776482582,
                0.009999999776482582,
                0.009999999776482582
            ],
            "translation" : [
                -40.70000076293945,
                4.099999904632568,
                30.299999237060547
            ]
        },
        {
            "mesh" : 0,
            "name" : "SM_Env_TreePine_1086",
            "rotation" : [
                0,
                0.7071068286895752,
                0,
                0.7071068286895752
            ],
            "scale" : [
                0.009999999776482582,
                0.009999999776482582,
                0.009999999776482582
            ],
            "translation" : [
                -38.89999771118164,
                2.799999952316284,
                20
            ]
        },
        {
            "mesh" : 1,
            "name" : "SM_Env_TreePine_1089",
            "rotation" : [
                0,
                0.7071068286895752,
                0,
                0.7071068286895752
            ],
            "scale" : [
                0.009999999776482582,
                0.009999999776482582,
                0.009999999776482582
            ],
            "translation" : [
                -36.5,
                3.1999998092651367,
                22.399999618530273
            ]
        }
    ],
    "meshes" : [
        {
            "name" : "SM_Env_TreePine_03",
            "primitives" : [
                {
                    "attributes" : {
                        "POSITION" : 0,
                        "NORMAL" : 1,
                        "TEXCOORD_0" : 2,
                        "TEXCOORD_1" : 3
                    },
                    "indices" : 4
                }
            ]
        },
        {
            "name" : "SM_Env_TreePine_02",
            "primitives" : [
                {
                    "attributes" : {
                        "POSITION" : 5,
                        "NORMAL" : 6,
                        "TEXCOORD_0" : 7,
                        "TEXCOORD_1" : 8
                    },
                    "indices" : 9
                }
            ]
        }
    ],
    "accessors" : [
        {
            "bufferView" : 0,
            "componentType" : 5126,
            "count" : 2054,
            "max" : [
                171.673828125,
                839.8411865234375,
                169.45794677734375
            ],
            "min" : [
                -171.673828125,
                -3.2442414318276666e-15,
                -169.45770263671875
            ],
            "type" : "VEC3"
        },
        {
            "bufferView" : 1,
            "componentType" : 5126,
            "count" : 2054,
            "type" : "VEC3"
        },
        {
            "bufferView" : 2,
            "componentType" : 5126,
            "count" : 2054,
            "type" : "VEC2"
        },
        {
            "bufferView" : 3,
            "componentType" : 5126,
            "count" : 2054,
            "type" : "VEC2"
        },
        {
            "bufferView" : 4,
            "componentType" : 5123,
            "count" : 2256,
            "type" : "SCALAR"
        },
        {
            "bufferView" : 5,
            "componentType" : 5126,
            "count" : 1226,
            "max" : [
                111.95361328125,
                563.5460205078125,
                113.19769287109375
            ],
            "min" : [
                -111.95263671875,
                -3.0687738981227284e-15,
                -113.19744873046875
            ],
            "type" : "VEC3"
        },
        {
            "bufferView" : 6,
            "componentType" : 5126,
            "count" : 1226,
            "type" : "VEC3"
        },
        {
            "bufferView" : 7,
            "componentType" : 5126,
            "count" : 1226,
            "type" : "VEC2"
        },
        {
            "bufferView" : 8,
            "componentType" : 5126,
            "count" : 1226,
            "type" : "VEC2"
        },
        {
            "bufferView" : 9,
            "componentType" : 5123,
            "count" : 1368,
            "type" : "SCALAR"
        }
    ],
    "bufferViews" : [
        {
            "buffer" : 0,
            "byteLength" : 24648,
            "byteOffset" : 0
        },
        {
            "buffer" : 0,
            "byteLength" : 24648,
            "byteOffset" : 24648
        },
        {
            "buffer" : 0,
            "byteLength" : 16432,
            "byteOffset" : 49296
        },
        {
            "buffer" : 0,
            "byteLength" : 16432,
            "byteOffset" : 65728
        },
        {
            "buffer" : 0,
            "byteLength" : 4512,
            "byteOffset" : 82160
        },
        {
            "buffer" : 0,
            "byteLength" : 14712,
            "byteOffset" : 86672
        },
        {
            "buffer" : 0,
            "byteLength" : 14712,
            "byteOffset" : 101384
        },
        {
            "buffer" : 0,
            "byteLength" : 9808,
            "byteOffset" : 116096
        },
        {
            "buffer" : 0,
            "byteLength" : 9808,
            "byteOffset" : 125904
        },
        {
            "buffer" : 0,
            "byteLength" : 2736,
            "byteOffset" : 135712
        }
    ],
    "buffers" : [
        {
            "byteLength" : 138448,
            "uri" : "Trees.bin"
        }
    ]
}
